<svg width="525" height="670" viewBox="0 0 525 670" fill="none" xmlns="http://www.w3.org/2000/svg">
<g clip-path="url(#clip0_109_68)">
<path fill-rule="evenodd" clip-rule="evenodd" d="M180.07 271.573C196.066 272.385 220.972 279.433 222.218 283.938C224.162 290.972 219.984 317.342 226.972 331.547C229.951 337.602 241.263 337.059 245.646 339.031C260.312 345.629 303.728 358.142 312.68 373.898C316.266 380.211 338.306 458.537 350.017 498.497C351.337 503.002 352.829 507.168 354.45 511.027L355.046 508.029C359.821 483.877 362.208 469.256 362.208 464.166C362.208 456.213 356.035 422.657 362.208 414.124C368.319 405.675 383.046 398.768 389.671 398.631L389.87 398.629C394.22 398.629 397.995 397.231 401.194 394.435L405.885 392.011C429.747 379.704 443.688 372.953 447.709 371.759C454.124 369.852 465.043 373.914 459.584 380.011C455.944 384.076 446.798 391.267 432.146 401.583L426.622 406.095L427.289 406.453C434.429 410.317 438.627 413.569 439.884 416.209C441.179 418.93 440.557 422.149 438.019 425.866L438.404 426.252C441.614 429.489 443.219 431.661 443.219 432.766V438.168C446.411 442.974 447.21 446.982 445.613 450.192C444.017 453.402 441.485 456.184 438.019 458.537C435.465 465.442 432.424 470.357 428.895 473.281C425.366 476.205 419.266 478.639 410.597 480.584L402.752 499.863L396.395 526.949L393.192 557.172L394.122 557.864C398.433 561.091 401.194 563.483 401.194 565.955C401.194 569.806 383.801 660.372 356.741 664.426C350.888 665.302 320.537 661.003 310.572 652.67L310.719 653.57C313.063 668.126 312.567 675.686 309.231 676.248C268.221 683.158 151.753 685.293 -40.175 682.653C-41.3169 577.954 -36.1535 508.226 -24.6849 473.469C4.64683 384.576 36.9864 354.214 48.3003 351.614C58.2108 349.336 92.5767 335.278 102.183 331.547C108.454 329.111 109.798 321.808 116.944 321.808L117.521 321.811C124.432 321.883 130.561 323.153 134.004 319.5C143.04 309.913 140.514 296.644 144.262 283.938C146.328 276.937 160.442 270.578 180.07 271.573Z" fill="white"/>
<path fill-rule="evenodd" clip-rule="evenodd" d="M136.124 296.676C137.063 294.764 139.555 295.012 141.2 295.879C146.132 299.585 140.971 306.769 139.607 311.292C136.097 320.064 130.001 328.637 121.586 332.737C122.284 341.457 123.074 350.159 123.365 358.906C134.124 372.623 152.264 377.629 168.367 381.479C193.658 388.668 222.201 373.939 230.737 348.245C221.022 342.571 217.878 327.717 220.777 317.353C221.029 316.625 222.127 316.303 222.517 317.116C225.178 322.74 224.823 329.6 227.847 335.156C256.876 338.013 294.34 349.27 313.357 373.399C321.785 385.47 325.123 401.17 329.274 415.161C338.131 444.003 345.187 473.43 353.873 502.302L354.897 496.839C357.703 481.79 360.253 466.537 358.358 451.233L358.324 450.501C357.705 438.324 353.997 415.694 363.186 407.473C371.497 400.945 383.537 395.7 393.967 398.709C412.527 390.22 428.547 375.925 448.314 370.357C454.398 369.07 463.15 370.594 461.712 379.077C457.727 393.913 441.038 399.671 429.629 407.322C436.942 409.358 445.858 418.499 440.144 426.47C440.095 426.611 440.051 426.719 440.007 426.803C444.641 428.914 445.29 434.219 444.152 438.767C444.037 439.969 443.73 438.937 444.416 440.026C449.645 445.094 447.334 459.221 439.458 459.699C439.973 466.392 435.79 472.894 430.491 476.545C424.78 480.479 416.523 480.648 411.795 486.032C400.694 506.15 396.865 529.9 395.655 552.938C402.972 555.753 409.537 564.171 402.889 571.313C402.758 571.329 402.627 571.345 402.494 571.356C398.64 581.927 397.152 593.195 395.114 604.235C391.978 623.073 383.806 640.368 373.371 656.061C361.303 676.833 328.853 673.54 312.506 660.134C312.571 663.651 313.135 667.147 312.039 670.546C310.421 674.214 306.477 672.629 306.087 669.017C297.445 674.012 295.41 657.524 305.016 660.139C304.277 648.22 303.849 636.283 303.501 624.343C292.625 627.961 292.156 609.415 303.281 613.124L303.268 607.997C303.186 568.683 303.609 529.235 308.657 490.231C309.123 487.313 309.914 484.491 310.375 481.59C310.425 481.291 310.88 481.376 310.882 481.663C311.663 536.27 308.191 590.993 311.814 645.619C314.83 646.564 316.032 650.121 318.266 652.193C323.223 656.898 329.975 659.188 336.577 659.986C355.064 662.651 363.046 656.847 371.279 640.331C367.566 642.882 362.548 638.378 364.811 634.341L364.882 634.219C367.233 629.942 373.871 632.505 373.03 637.295C381.307 623.671 385.639 608.309 388.839 592.722L389.272 590.86C390.827 584.243 392.845 576.66 396.58 570.673C373.804 564.707 351.523 546.529 347.959 521.588C342.176 540.262 334.342 558.516 326.875 576.678C324.569 582.993 323.608 589.782 320.303 595.64C319.534 596.995 317.585 596.645 317.15 595.216C314.177 581.556 323.185 568.562 327.862 556.265C331.682 549.315 342.645 517.577 349.442 517.501C341.804 483.093 331.617 448.943 321.915 414.964C312.534 369.084 293.417 360.236 252.918 345.791C260.223 384.051 293.574 421.087 275.827 461.217L275.396 462.258C273.581 466.683 272.073 471.141 273.34 475.998C274.57 480.71 277.37 484.802 279.611 489.04C292.134 512.98 283.514 540.939 278.672 565.871C272.555 595.108 266.512 624.372 260.19 653.565C258.943 659.389 258.136 665.388 256.253 671.032C255.281 673.944 250.433 673.667 250.746 670.27C251.344 663.678 253.145 657.25 254.464 650.777C262.337 608.868 272.989 567.454 279.763 525.361C284.12 494.202 266.967 489.415 267.607 469.282C269.939 458.985 276.11 449.797 275.755 438.824C277.127 405.236 253.323 377.526 250.385 344.859L245.196 342.956C242.603 342.002 240.012 341.04 237.43 340.056C251.022 437.759 246.895 537.597 240.1 635.782C238.712 640.313 240.032 671.961 234.213 669.152C233.919 670.921 233.005 672.66 231.017 672.651C212.969 672.821 194.915 673.114 176.867 673.335C168.186 672.513 156.253 675.92 148.869 670.772C140.344 668.271 139.364 644.54 137.084 636.082L136.196 629.93C121.709 529.414 108.745 426.824 119.158 325.312C104.67 325.885 101.68 341.956 100.605 353.657C97.9188 379.483 81.6837 401.725 80.9051 427.847C80.8392 434.185 82.0032 440.324 84.468 446.143C91.0075 460.4 102.317 476.882 93.8644 492.805C83.8673 505.2 84.7327 508.463 88.4011 523.781C98.7221 574.421 115.862 623.105 132.167 671.93C128.624 690.908 107.316 620.456 105.311 615.144C95.8784 620.019 90.7259 603.841 101.545 602.689C94.5958 578.782 88.2007 554.696 82.8763 530.345L82.7352 529.658C80.3833 518.407 75.7571 505.233 83.5692 495.253C103.713 474.316 70.2612 450.914 74.4809 425.55C70.8372 428.327 65.3217 425.406 65.4046 420.742C65.2394 415.491 72.1017 412.802 75.4039 416.808C78.799 396.23 90.6111 378.265 94.1856 357.748L94.347 356.784C95.5583 349.533 95.8998 341.903 99.365 335.294C94.6479 338.443 89.6244 340.988 84.4576 343.234C93.6958 351.165 75.8063 358.403 77.2867 346.152C26.6244 361.217 15.1734 382.225 -3.42765 430.471C0.046913 427.002 5.99891 431.492 3.919 435.917C2.25969 440.578 -4.97879 439.215 -4.97604 434.247L-5.82384 436.325C-17.1033 464.045 -27.3695 492.439 -32.5287 522.105C-22.4081 520.637 -24.985 537.261 -34.1545 532.574C-37.8345 558.957 -37.8927 585.714 -37.443 612.31C-28.9065 607.71 -28.6495 623.344 -37.3606 618.886C-37.0421 640.681 -36.5754 662.476 -36.224 684.271C-36.1526 688.91 -43.1149 688.888 -43.2247 684.271C-44.0379 650.782 -45.5199 617.232 -44.8154 583.733C-45.4781 525.59 -29.2156 469.55 -4.98483 417.466C16.455 357.495 46.07 350.675 100.557 333.239C105.586 325.565 116.332 318.308 125.099 323.126C130.004 314.988 132.495 305.347 136.124 296.676ZM42.7717 505.688C42.9749 504.949 44.0017 505.135 44.0346 505.863C44.4903 515.271 44.084 524.74 43.4581 534.188C43.0787 539.956 42.6125 545.717 42.2172 551.446C41.1684 566.559 40.3229 581.689 39.6804 596.831C39.9056 596.735 40.1362 596.65 40.3778 596.583C41.4869 596.272 42.5966 596.272 43.7052 596.583C44.6942 596.866 45.559 597.363 46.3038 598.079L46.4615 598.236C47.071 598.817 47.5048 599.506 47.7574 600.302C48.1172 601.01 48.2993 601.767 48.2988 602.576L48.2949 602.779C48.29 603.941 48.0099 605.019 47.4389 606.024C46.8843 606.989 46.1376 607.757 45.1987 608.332C44.2213 608.914 43.172 609.201 42.0415 609.207C41.9207 609.218 41.7993 609.23 41.6791 609.235C40.8384 609.269 40.0538 609.089 39.3285 608.699L39.2192 608.665C38.9447 616.346 38.7196 624.033 38.5548 631.719C38.4066 638.418 38.2089 645.117 38.0771 651.815L38.0159 655.166L37.8964 662.572C37.8576 665.618 37.8766 668.534 36.8692 671.406L36.7484 671.737C36.0236 673.655 35.4586 676.325 33.5192 677.392C31.9714 678.244 29.8849 677.928 28.9954 676.268C28.2487 674.881 28.896 672.882 30.0002 671.945C29.9782 671.884 29.9453 671.827 29.9178 671.765C29.7476 671.257 29.489 670.778 29.3358 670.264C28.8521 668.639 28.9844 666.906 28.9789 665.218C28.9789 662.239 29.0772 659.259 29.1546 656.285C29.3248 649.953 29.5225 643.627 29.7636 637.3C30.5797 616.078 32.1164 594.856 33.8765 573.693L34.4738 566.55C35.2696 557.052 36.0931 547.543 37.259 538.093C37.3134 537.642 37.3688 537.19 37.4292 536.738C36.8033 536.417 36.2213 535.971 35.7595 535.475C33.9097 533.478 32.7876 530.494 31.7355 527.922L31.4937 527.337C30.3516 524.594 29.2974 521.817 28.7538 518.871L28.7018 518.6C28.4538 517.346 27.9644 515.123 29.259 514.515C29.9343 514.199 30.362 514.424 30.5822 515.118C30.6102 515.209 30.5872 515.31 30.5383 515.389C31.0709 516.23 31.9055 517.015 32.4326 517.794L34.2367 520.445L35.1286 521.777C36.2597 523.488 37.4677 525.124 38.7141 526.738C39.6964 519.65 40.8994 512.59 42.7717 505.688ZM116.754 663.645C119.011 661.827 122.684 662.814 122.684 666.167C122.684 669.536 119.006 670.507 116.754 668.689L116.642 668.604L116.535 668.514C115.309 667.53 115.268 664.967 116.442 663.899L116.535 663.82C116.606 663.757 116.678 663.701 116.754 663.645ZM18.4458 657.093L18.6396 657.097C19.6609 657.097 20.6108 657.363 21.4948 657.894C21.8792 658.193 22.2581 658.497 22.6424 658.802C23.3452 659.524 23.8284 660.383 24.0975 661.37L24.3012 662.916C24.3281 663.717 24.1688 664.462 23.8119 665.157C23.5813 665.879 23.1915 666.505 22.6424 667.031C22.1263 667.601 21.5223 668.001 20.82 668.232C20.2004 668.568 19.5398 668.739 18.8334 668.739L18.6396 668.735C17.6134 668.735 16.663 668.47 15.779 667.939C15.3946 667.64 15.0157 667.335 14.6314 667.031C13.9341 666.308 13.4454 665.45 13.1769 664.462C13.1104 663.949 13.0451 663.429 12.9732 662.916C12.9463 662.115 13.1104 661.37 13.4618 660.675C13.6925 659.953 14.0823 659.327 14.6314 658.802C15.1481 658.232 15.7515 657.831 16.4543 657.6C17.0734 657.264 17.7386 657.094 18.4458 657.093ZM275.476 646.363L276.915 646.561C278.293 646.883 279.402 647.927 280.143 649.118C280.539 649.756 280.752 650.444 280.785 651.184C280.945 651.917 280.912 652.656 280.686 653.396C280.522 654.118 280.198 654.75 279.72 655.286C279.556 655.552 279.363 655.794 279.144 656.009C278.693 656.782 278.013 657.289 277.31 657.809C276.717 658.198 276.074 658.407 275.382 658.441C274.927 658.565 274.465 658.565 274.004 658.441C273.318 658.407 272.675 658.198 272.082 657.809C271.732 657.532 271.38 657.25 271.034 656.974C270.727 656.607 270.441 656.229 270.172 655.834C269.991 655.399 269.815 654.97 269.64 654.541C269.315 653.508 269.474 652.594 269.651 651.562C269.678 651.387 269.722 651.229 269.782 651.059L269.901 650.731C270.217 649.874 270.386 649.583 270.946 648.836L271.159 648.542C271.266 648.396 271.376 648.253 271.501 648.125C271.852 647.752 272.352 647.441 272.747 647.12C273.592 646.618 274.504 646.37 275.476 646.363ZM89.0569 642.75L89.24 642.752C90.0361 642.758 90.7834 642.961 91.4747 643.373L92.3752 644.09C92.9243 644.66 93.3031 645.325 93.5173 646.099C93.5667 646.504 93.6221 646.911 93.6765 647.312C93.6985 647.938 93.5727 648.525 93.2921 649.073C93.117 649.637 92.809 650.122 92.3752 650.54C91.9749 650.98 91.4967 651.296 90.9476 651.483C90.4684 651.739 89.9529 651.874 89.4052 651.876L89.24 651.872C88.4383 651.872 87.6916 651.663 86.9997 651.251L86.0992 650.54C85.5502 649.97 85.1713 649.299 84.9572 648.525C84.9077 648.119 84.8528 647.718 84.7979 647.312C84.776 646.686 84.9022 646.099 85.1823 645.557C85.3635 644.993 85.6655 644.502 86.0992 644.09C86.5001 643.644 86.9778 643.328 87.5268 643.147C88.0062 642.888 88.5122 642.757 89.0569 642.75ZM52.8199 640.884C53.9669 640.873 55.1315 641.206 56.0704 641.889C56.9819 642.554 57.6732 643.271 58.1185 644.349C58.2393 644.643 58.3595 644.93 58.4644 645.224C58.9366 646.516 59.0245 647.814 58.3711 649.078C57.7396 650.303 56.3779 650.839 55.1584 651.205C54.1267 651.522 52.9572 651.573 51.9304 651.195C51.4198 651.008 50.9201 650.811 50.4589 650.523C49.5968 649.976 49.1301 649.326 48.5536 648.525C48.1033 647.735 47.8782 646.877 47.8782 645.963C47.8782 645.043 48.1033 644.191 48.5536 643.395C49.437 641.843 51.0738 640.895 52.8199 640.884ZM-5.38247 641.973C-3.93236 641.973 -2.65905 642.662 -1.78547 643.824C-0.902003 645.004 -0.578048 646.471 -0.967893 647.933C-1.3797 649.479 -2.62555 650.834 -4.16901 651.223C-5.31054 651.511 -6.24452 651.5 -7.38111 651.301C-8.342 651.133 -9.07721 650.545 -9.81352 649.936C-10.6536 649.23 -10.9117 647.944 -10.7744 646.906C-10.6426 645.867 -10.1754 645.19 -9.46705 644.574L-9.46211 644.558L-9.72566 644.767C-9.62628 644.676 -9.528 644.581 -9.42862 644.485C-9.39622 644.428 -9.36877 644.366 -9.34131 644.304C-8.935 643.593 -8.38592 643.034 -7.69957 642.617C-6.98028 642.188 -6.21158 641.973 -5.38247 641.973ZM332.624 624.879C333.42 624.659 334.221 624.659 335.018 624.879C335.606 625.02 336.116 625.297 336.55 625.708C336.99 626.003 337.349 626.38 337.621 626.848L337.708 627.007C338.335 628.102 338.433 629.354 338.164 630.573C337.829 632.08 336.479 633.452 335.018 633.807L334.968 633.816L334.919 633.83C334.326 634.022 333.727 634.05 333.135 633.909C332.536 633.881 331.981 633.7 331.471 633.361C330.823 632.933 330.28 632.379 329.862 631.714C329.532 631.183 329.357 630.613 329.329 629.997C329.225 629.592 329.225 629.185 329.329 628.779C329.357 628.163 329.532 627.593 329.862 627.063L330.565 626.132L330.637 626.07C331.197 625.494 331.86 625.099 332.624 624.879ZM277.343 595.014C284.541 595.014 284.53 606.493 277.343 606.493C270.145 606.493 270.155 595.014 277.343 595.014ZM13.7965 593.563C14.5547 593.388 15.3125 593.422 16.0647 593.665C16.5204 593.862 16.9707 594.06 17.4209 594.251L18.574 595.167C18.7881 595.352 18.8924 595.555 19.0901 595.821L19.3372 596.153C19.6944 596.644 19.7029 596.748 20.0949 597.796C20.3585 598.8 20.3585 599.804 20.0949 600.81C19.9681 601.295 19.7765 601.752 19.5294 602.175C19.3035 602.582 19.0332 602.938 18.7289 603.266L18.574 603.428C18.0578 603.998 17.4484 604.399 16.7456 604.636C16.3008 604.902 15.8231 605.031 15.3125 605.031C14.5547 605.206 13.7965 605.172 13.0448 604.929C12.589 604.732 12.1388 604.534 11.688 604.342L10.5355 603.428L9.64598 602.243L9.36232 601.548L9.07495 600.849L8.87179 599.297C8.84433 598.49 9.00357 597.745 9.35992 597.045C9.49719 596.554 9.73933 596.12 10.0902 595.758C10.3433 595.318 10.6832 594.968 11.112 594.709C11.4629 594.347 11.8862 594.099 12.3639 593.958C12.8087 593.693 13.2864 593.563 13.7965 593.563ZM369.829 585.363C370.428 585.341 370.988 585.47 371.504 585.752C371.685 585.815 371.862 585.893 372.031 585.984C372.696 586.384 373.223 586.926 373.613 587.604C373.931 588.123 374.107 588.682 374.134 589.285C374.253 589.83 374.243 590.378 374.099 590.923L374.052 591.086C373.931 591.532 373.75 591.943 373.509 592.321C373.486 592.367 373.459 592.412 373.426 592.451C373.058 593.05 372.569 593.54 371.965 593.908C371.295 594.302 370.576 594.505 369.796 594.512C368.243 594.512 366.903 593.648 366.085 592.321C365.969 592.135 365.903 591.898 365.822 591.706C365.75 591.526 365.634 591.295 365.573 591.086C365.365 590.285 365.365 589.483 365.573 588.682C365.711 588.094 365.969 587.581 366.359 587.146C366.672 586.656 367.083 586.266 367.595 585.984C368.228 585.604 368.909 585.402 369.631 585.368L369.829 585.363ZM65.904 579.748C66.6643 579.534 67.4203 579.518 68.1756 579.699L68.3644 579.748C68.9679 579.895 69.49 580.177 69.9397 580.595C70.4394 580.933 70.8408 581.379 71.1312 581.932C71.5491 582.671 71.7577 583.473 71.7627 584.33C71.7577 585.188 71.5491 585.99 71.1312 586.728C70.7194 587.446 70.1649 588.01 69.4681 588.433L68.8641 588.733C68.3589 589.06 67.8208 589.235 67.2383 589.262C66.849 589.37 66.4586 589.37 66.0748 589.262C65.6789 589.262 65.311 589.161 64.9711 588.958C64.5978 588.851 64.2788 588.659 64.0042 588.376C63.5265 588.06 63.1537 587.643 62.8792 587.118L62.4339 586.04L62.2807 584.844L62.4339 583.653L62.676 583.066C62.8951 582.259 63.291 581.56 63.8669 580.967C64.4435 580.38 65.1243 579.973 65.904 579.748ZM338.203 570.228C339.004 569.968 339.8 569.934 340.597 570.115C341.134 570.115 341.639 570.256 342.107 570.538C342.617 570.684 343.056 570.944 343.43 571.328C344.083 571.762 344.594 572.338 344.973 573.054L345.576 574.528C345.939 575.481 345.807 576.887 345.588 577.846C345.407 578.636 345.055 579.325 344.534 579.911C344.27 580.368 343.919 580.73 343.473 581.001C342.965 581.476 342.379 581.815 341.713 582.016L341.53 582.067L341.464 582.084C341.453 582.09 341.442 582.09 341.431 582.09C341.426 582.096 341.414 582.096 341.409 582.096C341.146 582.163 340.877 582.203 340.597 582.214C339.8 582.394 339.004 582.361 338.203 582.101C337.73 581.898 337.253 581.689 336.775 581.481C336.369 581.165 335.967 580.842 335.562 580.521C335.249 580.104 334.936 579.685 334.623 579.274C334.183 578.569 333.947 577.801 333.914 576.982C333.771 576.435 333.771 575.894 333.914 575.346C333.914 574.787 334.052 574.274 334.32 573.794C334.562 573.027 334.974 572.366 335.562 571.808C335.967 571.485 336.369 571.164 336.775 570.848C337.253 570.639 337.73 570.431 338.203 570.228ZM-11.9986 550.024C-11.17 549.792 -10.3404 549.792 -9.51125 550.024L-8.39717 550.503C-7.8481 550.808 -7.41378 551.219 -7.08433 551.745C-6.66703 552.207 -6.38755 552.755 -6.24479 553.381C-5.92029 554.239 -5.95872 555.599 -6.21679 556.474C-6.5078 557.467 -6.95805 558.257 -7.65537 559.002C-8.81393 560.233 -10.5935 560.588 -12.1688 560.216C-12.6031 560.114 -13.0149 559.917 -13.3883 559.674C-14.5792 558.918 -15.3809 557.597 -15.3754 556.135C-15.3754 555.977 -15.3644 555.819 -15.3425 555.662C-15.4193 555.34 -15.4473 555.007 -15.4358 554.656L-15.2711 553.381L-15.2606 553.348C-15.0405 552.54 -14.6451 551.841 -14.0691 551.248C-13.5365 550.706 -12.9153 550.314 -12.2054 550.079L-12.026 550.024H-11.9986ZM402.329 423.299C400.829 410.659 395.19 397.061 377.989 404.483L376.711 404.975C372.455 406.631 367.495 408.807 364.905 412.632C363.12 415.268 363.724 420.375 363.477 423.451C362.355 433.451 362.957 443.437 364.126 453.395C365.634 476.736 360.859 500.92 351.353 522.133C360.867 537.955 373.599 552.712 390.968 559.307C391.703 541.318 395.13 523.659 398.777 506.106L398.92 505.341C400.379 497.425 401.109 489.302 406.167 482.719C416.455 471.238 430.606 477.736 437.377 459.293C435.955 458.554 436.74 456.025 438.453 456.511C444.392 457.594 445.356 446.279 441.292 443.553C437.057 440.899 441.321 436.003 439.518 432.469C438.513 430.945 436.345 430.895 435.361 429.139C432.755 422.678 445.797 418.537 430.46 411.253C427.321 410.106 423.812 410.817 420.646 410.804C415.989 411.251 412.288 414.624 408.029 415.685C412.666 428.027 400.965 439.911 390.403 430.054C384.656 435.637 378.229 448.364 392.199 442.431C399.037 437.74 404.924 431.677 412.861 428.789L413.029 428.735C415.975 427.743 428.869 421.304 428.23 426.877C423.4 431.668 415.435 431.611 409.841 435.5C402.086 439.186 397.128 448.118 387.845 447.994C385.704 461.35 400.451 453.224 405.942 449.54L407.465 448.691C415.21 444.391 423.073 440.406 432.106 440.353C434.598 440.336 434.587 444.287 432.106 444.321C420.333 444.396 410.752 451.959 400.891 457.582C399.92 465.379 411.028 461.966 415.244 460.815C419.663 460.177 426.761 455.264 430.629 457.859C432.142 461.854 425.484 461.557 423.167 462.769C433.748 467.993 424.477 471.282 421.64 463.255L420.809 463.546C413.723 465.993 396.541 471.031 398.585 458.695C395.992 459.874 392.83 460.58 389.964 459.925C382.818 470.789 371.418 466.585 387.987 459.18C384.254 457.395 383.007 450.503 386.593 447.938C373.551 447.12 383.234 433.056 388.632 428.369C388.122 427.839 387.629 427.299 387.169 426.752C384.056 428.276 380.784 429.202 377.285 429.529C373.936 429.839 373.19 423.981 376.495 423.502C380.037 422.988 383.299 422.017 386.417 420.188C391.143 418.091 392.757 427.105 397.487 427.424C400.067 427.949 401.813 425.624 402.329 423.299ZM292.525 539.605C293.667 539.605 294.683 540.097 295.512 540.875C296.341 541.654 296.698 542.823 296.747 543.94C296.769 544.538 296.648 545.097 296.385 545.616C296.214 546.152 295.923 546.615 295.512 547.01C294.743 547.794 293.606 548.28 292.525 548.28C291.383 548.28 290.367 547.789 289.538 547.01C288.709 546.225 288.352 545.063 288.302 543.94C288.28 543.347 288.402 542.788 288.665 542.269C288.818 541.787 289.069 541.359 289.418 540.994L289.538 540.875C290.307 540.085 291.443 539.605 292.525 539.605ZM327.131 512.841L327.314 512.844C328.281 512.85 329.176 513.098 330.01 513.594C330.373 513.882 330.735 514.164 331.092 514.453C331.756 515.141 332.212 515.948 332.465 516.879C332.723 517.85 332.723 518.826 332.465 519.796C332.377 520.356 332.174 520.898 331.856 521.366C331.383 522.172 330.757 522.822 329.966 523.301C329.148 523.793 328.264 524.035 327.314 524.04C326.365 524.035 325.48 523.793 324.662 523.301C323.871 522.822 323.245 522.172 322.779 521.366C322.455 520.898 322.252 520.356 322.164 519.796C321.906 518.826 321.906 517.85 322.164 516.879C322.398 516.014 322.808 515.257 323.397 514.602L323.537 514.453C324.02 513.917 324.591 513.538 325.255 513.318C325.839 513.003 326.464 512.843 327.131 512.841ZM63.0267 513.143C63.4336 513.03 63.8344 513.03 64.2407 513.143C64.8447 513.171 65.4097 513.357 65.9319 513.696C66.2393 513.944 66.5468 514.187 66.8543 514.43L67.1224 514.761C67.6954 515.478 67.7099 515.6 68.1496 516.693C68.3313 517.303 68.3588 517.912 68.227 518.522C68.227 518.934 68.1227 519.317 67.9245 519.673C67.8152 520.062 67.6285 520.401 67.3485 520.683C67.1503 521.027 66.8872 521.303 66.5518 521.507C66.124 521.908 65.6189 522.184 65.0369 522.325L63.8558 522.488C63.7026 522.466 63.5434 522.444 63.3896 522.427C63.2043 522.421 63.0243 522.399 62.8481 522.365L62.6698 522.325L62.5074 522.28C62.2924 522.216 62.083 522.13 61.8797 522.021C61.4953 521.908 61.1604 521.71 60.8743 521.417C60.3807 521.089 59.9854 520.649 59.6998 520.102L59.623 519.921C59.5186 519.729 59.4308 519.532 59.3643 519.317C59.1782 518.979 59.0849 518.618 59.0794 518.228C58.9702 517.71 58.9775 517.197 59.1081 516.683L59.1562 516.512L59.579 515.479C59.7987 515.13 60.0293 514.774 60.3252 514.486C60.5036 514.323 60.9395 513.974 61.185 513.799L61.3355 513.696C61.8577 513.357 62.4233 513.171 63.0267 513.143ZM-3.16952 505.073C-2.37885 501.873 1.70628 500.863 3.93004 503.148C6.15325 505.435 5.17095 509.633 2.05824 510.446L1.70079 510.536C-1.30815 511.32 -4.02059 508.527 -3.25738 505.435L-3.16952 505.073ZM373.7 478.972C373.678 478.655 374.074 478.543 374.271 478.729C376.918 481.167 378.603 484.091 381.816 485.981C385.045 487.878 388.372 487.725 391.737 488.949C392.879 489.367 392.885 490.936 391.737 491.348C385.368 493.634 374.183 485.885 373.7 478.972ZM74.4258 478.475C75.1347 478.249 75.8485 478.216 76.5568 478.379C77.04 478.379 77.4897 478.503 77.9015 478.751C78.3572 478.881 78.7476 479.119 79.082 479.457C79.4833 479.7 79.8018 480.033 80.0429 480.444C80.5156 480.975 80.8341 481.596 80.9982 482.307L81.1849 483.769L80.9982 485.23C80.8171 485.664 80.6359 486.105 80.4602 486.54L79.9695 487.223C79.572 487.768 79.5083 487.774 78.5439 488.509C77.9295 488.909 77.2651 489.13 76.5568 489.158C76.084 489.294 75.6118 489.294 75.1347 489.158C74.657 489.158 74.2062 489.034 73.7894 488.786C73.3386 488.656 72.9438 488.419 72.6084 488.08C72.0269 487.691 71.5712 487.177 71.2357 486.54C71.0545 486.105 70.8738 485.664 70.6981 485.23L70.5054 483.769L70.6981 482.307L70.7086 482.262C70.9611 481.348 71.4119 480.552 72.0593 479.88L73.125 479.033C73.5418 478.757 73.9756 478.616 74.4258 478.475ZM330.741 479.57C332.261 479.141 333.931 479.592 335.045 480.738C336.16 481.884 336.599 483.593 336.182 485.157C335.77 486.681 334.579 487.916 333.091 488.329C332.646 488.452 332.196 488.521 331.74 488.498C330.976 488.493 330.263 488.294 329.599 487.9L328.742 487.216C328.324 486.822 328.034 486.354 327.863 485.812C327.594 485.293 327.473 484.734 327.495 484.13L327.49 484.023C327.473 483.808 327.501 483.593 327.567 483.385C327.567 483.164 327.6 482.95 327.655 482.741C328.056 481.218 329.264 479.987 330.741 479.57ZM2.85385 464.288C3.34253 464.27 3.79826 464.372 4.22105 464.603C4.6658 464.75 5.04467 464.998 5.36313 465.359C5.71454 465.687 5.95613 466.082 6.09889 466.533C6.32401 466.968 6.42285 467.437 6.40637 467.939C6.40637 468.599 6.24165 469.214 5.92319 469.778C5.7365 470.027 5.54982 470.275 5.36313 470.518C4.92387 470.975 4.40224 471.285 3.79826 471.46L3.44685 471.584C2.93072 471.776 2.42557 471.787 1.88747 471.715C1.32192 471.635 0.79975 471.477 0.339074 471.116C-0.111718 470.845 -0.468064 470.478 -0.731621 470.015L-1.03361 469.282C-1.0995 469.034 -1.12696 468.661 -1.14343 468.401C-1.14343 468.362 -1.14343 468.329 -1.14892 468.288C-1.14892 468.068 -1.08303 467.533 -1.02867 467.312C-0.907326 466.849 -0.660793 466.409 -0.380215 466.037C-0.138621 465.648 0.190826 465.343 0.597143 465.117L0.633315 465.089L0.674013 465.06C0.799752 464.97 0.932078 464.88 1.06386 464.783C1.61293 464.457 2.21143 464.288 2.85385 464.288ZM286.392 460.28C287.27 460.28 288.089 460.512 288.846 460.963C288.873 460.974 288.901 460.986 288.923 460.998C289.648 461.437 290.224 462.03 290.653 462.775C291.092 463.548 291.311 464.384 291.311 465.275C291.311 466.172 291.092 467.002 290.653 467.775C290.224 468.52 289.648 469.112 288.923 469.553C288.901 469.57 288.873 469.58 288.846 469.592C288.089 470.044 287.27 470.269 286.392 470.275C285.519 470.269 284.701 470.044 283.942 469.592C282.46 468.7 281.532 467.036 281.532 465.275C281.532 463.513 282.46 461.849 283.942 460.963C284.701 460.512 285.519 460.28 286.392 460.28ZM58.37 453.754L58.5195 453.751C59.1015 453.728 59.6445 453.852 60.1442 454.129C60.6658 454.304 61.1216 454.603 61.5065 455.027L62.3081 455.715L62.5408 455.908C62.5791 455.941 62.6169 455.975 62.6535 456.009C63.1921 456.567 63.56 457.221 63.7687 457.978C63.8346 458.413 63.8889 458.841 63.9334 459.276C64.0536 460.404 63.4063 461.562 62.6925 462.363C62.3081 462.787 61.8518 463.085 61.3253 463.266C60.8201 463.537 60.271 463.661 59.6885 463.638C58.497 463.531 57.3664 463.271 56.5099 462.323C56.4105 462.21 56.3171 462.092 56.2189 461.973L55.5325 461.161C55.0109 460.619 54.6479 459.981 54.4508 459.247C54.3954 458.858 54.3465 458.474 54.2971 458.091C54.2471 456.934 54.7962 455.85 55.5325 455.027C56.2123 454.263 57.3653 453.797 58.37 453.754ZM30.6539 441.871C36.3638 441.871 36.3528 450.975 30.6539 450.975C24.9485 450.975 24.9595 441.871 30.6539 441.871ZM317.756 429.108L317.936 429.111C318.881 429.117 319.764 429.36 320.583 429.851L321.648 430.692C322.296 431.369 322.746 432.159 322.999 433.073C323.059 433.552 323.12 434.032 323.185 434.507C323.213 435.251 323.059 435.946 322.73 436.589C322.521 437.255 322.159 437.836 321.648 438.327C321.17 438.852 320.61 439.225 319.957 439.439C319.331 439.778 318.656 439.936 317.936 439.907C316.986 439.901 316.102 439.659 315.284 439.168C314.927 438.886 314.576 438.604 314.219 438.327C313.621 437.702 313.191 436.981 312.934 436.154L312.874 435.946L312.682 434.507C312.654 433.767 312.807 433.073 313.137 432.43C313.346 431.758 313.708 431.183 314.219 430.692C314.697 430.166 315.262 429.794 315.91 429.58C316.484 429.269 317.099 429.11 317.756 429.108ZM292.036 412.068C292.547 412.051 293.019 412.158 293.464 412.395C293.919 412.547 294.315 412.812 294.65 413.179C295.358 413.761 295.792 414.923 295.792 415.866C295.792 416.808 295.358 417.971 294.65 418.552C294.188 419.02 293.645 419.348 293.019 419.528L292.036 419.664C291.081 419.709 290.109 419.196 289.428 418.552C289.291 418.423 289.159 418.293 289.022 418.168C288.402 417.581 288.133 416.707 288.094 415.866C288.077 415.42 288.171 415.003 288.368 414.613C288.495 414.207 288.714 413.862 289.022 413.563C289.159 413.439 289.291 413.31 289.428 413.179C290.17 412.474 291.037 412.119 292.036 412.068ZM454.991 381.711C458.599 377.194 456.498 373.979 451.076 375.097C441.736 376.395 432.946 382.462 424.721 386.813C415.743 391.686 406.49 395.706 397.332 400.286C401.111 402.67 403.921 406.403 406.068 410.663C410.353 407.318 415.832 405.718 421.179 405.51C430.881 395.96 446.947 393.773 454.991 381.711ZM28.7324 396.707C29.7107 396.711 30.6273 396.948 31.4862 397.42L31.6694 397.525L32.8444 398.461C33.4155 399.003 33.8163 399.646 34.0524 400.386C34.4148 401.097 34.5795 401.87 34.5521 402.694C34.5795 403.518 34.4148 404.285 34.0524 404.997C33.8163 405.741 33.4155 406.379 32.8444 406.921C32.5205 407.356 32.1032 407.694 31.6035 407.943C31.1363 408.14 30.6756 408.343 30.2089 408.546C29.6872 408.716 29.0833 408.738 28.5177 408.766C27.4909 408.761 26.5361 408.495 25.6455 407.965L24.493 407.051C23.9384 406.52 23.5425 405.894 23.3119 405.166C22.9852 404.525 22.8197 403.84 22.8197 403.109L22.8238 402.908C22.8238 402.864 22.8238 402.812 22.8298 402.762C22.8952 402.231 22.9671 401.701 23.0374 401.171C23.2191 400.391 23.565 399.709 24.0812 399.133C24.2129 398.862 24.3886 398.642 24.6143 398.461C25.3386 397.716 26.1946 397.208 27.1834 396.92C27.6996 396.853 28.2157 396.779 28.7324 396.707ZM283.501 381.754L283.668 381.757C284.409 381.757 285.096 381.948 285.733 382.327C286.013 382.547 286.287 382.767 286.562 382.987C287.073 383.512 287.424 384.132 287.616 384.844L287.765 385.96C287.781 386.542 287.665 387.078 287.407 387.581C287.243 388.1 286.962 388.551 286.562 388.935C286.194 389.346 285.755 389.635 285.244 389.804C284.761 390.069 284.234 390.188 283.668 390.166C282.932 390.166 282.24 389.973 281.603 389.59C281.329 389.375 281.049 389.155 280.774 388.935C280.311 388.454 279.977 387.892 279.777 387.254L279.726 387.078L279.578 385.96C279.556 385.38 279.671 384.844 279.929 384.341C280.093 383.817 280.38 383.365 280.774 382.987C281.148 382.574 281.588 382.287 282.093 382.118C282.532 381.879 283.003 381.759 283.501 381.754ZM60.8259 375.642L61.0175 375.644C62.1101 375.65 63.1259 375.932 64.0703 376.497C64.4766 376.819 64.8835 377.141 65.2893 377.468C66.0415 378.24 66.5576 379.155 66.8492 380.21L67.0628 381.858C67.0957 382.716 66.92 383.511 66.5412 384.251C66.3001 385.025 65.8823 385.69 65.2893 386.254C64.7462 386.859 64.0978 387.287 63.3455 387.536C62.6262 387.925 61.8521 388.106 61.0175 388.071C59.9248 388.071 58.909 387.789 57.9646 387.225C57.5588 386.903 57.1525 386.576 56.7407 386.254C55.9934 385.475 55.4773 384.561 55.1863 383.511L54.9721 381.858C54.9392 381.006 55.1149 380.205 55.4937 379.465C55.7353 378.698 56.1526 378.026 56.7407 377.468C57.2898 376.858 57.9371 376.429 58.6894 376.181C59.3533 375.821 60.0641 375.644 60.8259 375.642ZM264.138 360.125C264.637 359.989 265.137 359.989 265.636 360.125C266.383 360.159 267.081 360.39 267.729 360.813L268.865 361.717C268.881 361.733 268.898 361.751 268.915 361.773C269.601 362.484 270.078 363.325 270.342 364.29L270.54 365.808C270.567 366.593 270.408 367.326 270.062 368.004C269.856 368.655 269.515 369.221 269.046 369.711L268.865 369.894C268.354 370.458 267.756 370.859 267.058 371.09C266.62 371.356 266.141 371.486 265.636 371.486C264.89 371.66 264.138 371.627 263.39 371.383C262.946 371.186 262.495 370.994 262.046 370.803L261.903 370.718C260.206 369.764 259.157 367.767 259.157 365.808C259.157 363.849 260.206 361.846 261.903 360.892C261.952 360.87 261.996 360.841 262.046 360.813C262.694 360.39 263.391 360.159 264.138 360.125Z" fill="#12296C"/>
<path fill-rule="evenodd" clip-rule="evenodd" d="M258.87 63.29C229.511 54.4336 128.545 63.5118 126.048 65.43C121.962 68.9194 102.089 79.9911 98.9961 82.5188C71.0344 112.979 97.6908 158.213 95.6394 194.959C95.7701 207.994 90.3661 219.895 87.8821 232.434C86.8333 239.005 87.0645 245.802 90.3968 251.702C96.2555 262.244 108.628 264.381 118.69 268.632C123.697 270.848 128.375 273.989 132.664 277.427C161.536 303.679 177.608 321.656 219.737 315.733C219.952 317.801 221.734 319.832 223.943 318.908C229.115 316.743 234.251 314.447 239.468 312.395C240.583 315.157 243.786 315.945 245.956 313.506L245.969 313.523C255.627 305.471 261.769 294.461 266.33 282.675C269.523 275.875 272.137 268.78 274.134 261.474C274.36 260.647 274.33 259.908 274.126 259.272C283.343 226.628 286.754 192.223 284.328 158.33C283.836 151.337 282.551 144.252 282.867 137.23C283.152 130.885 285.812 124.884 287.839 118.975C298.292 93.8564 282.313 71.1988 258.87 63.29Z" fill="white"/>
<path fill-rule="evenodd" clip-rule="evenodd" d="M262.563 22.5057L262.876 22.2563C266.261 19.5269 269.453 15.9497 274.226 17.2911C278.141 18.3916 280.117 21.7212 280.957 25.7451C282.149 24.464 283.307 23.1378 284.438 21.7664C287.513 18.0417 294.382 19.9718 295.299 24.718C297.155 34.2781 297.248 44.0075 295.442 53.5845C295.167 55.0349 294.843 56.4796 294.465 57.9075C296.524 55.2719 298.44 52.5235 300.159 49.6284C302.02 46.485 306.226 48.0426 306.517 51.4005C306.594 52.2696 306.638 53.15 306.649 54.036C307.961 54.5101 308.867 55.8984 308.521 57.6027C306.61 66.9822 304.189 76.2319 301.279 85.3236C305.957 82.7728 311.2 81.2603 316.137 83.0606C323.977 85.9275 325.844 94.7201 324.312 102.288C322.385 111.803 316.323 119.766 308.504 124.986C307.577 126.42 306.66 127.864 305.787 129.337C305.77 133.497 305.034 137.645 303.552 141.499C301.883 145.828 298.94 149.569 295.316 152.414C294.042 155.264 290.669 157.347 287.707 156.77L287.552 156.737L287.546 156.742C288.304 159.53 288.957 162.346 289.523 165.168C293.902 187.03 291.685 209.787 287.691 231.525L287.563 232.219C283.977 251.565 279.804 271.599 271.694 289.562C264.359 305.804 251.922 320.088 234.148 323.632C213.24 327.803 190.096 321.194 172.114 310.173C165.596 306.177 171.57 295.646 178.06 299.709C187.428 305.567 197.602 309.659 208.364 311.815C218.423 313.824 229.674 314.507 239.321 310.342C252.757 304.54 260.74 290.369 265.792 277.028C268.768 269.155 270.997 261.029 273.073 252.868C275.747 242.377 278.239 231.818 280.112 221.14C283.598 201.224 284.729 180.541 281.04 160.569C279.865 154.197 278.201 147.786 276.032 141.623C275.692 141.189 275.368 140.703 275.077 140.173C272.809 136.087 271.244 131.442 269.558 127.024C268.081 124.388 266.467 121.854 264.754 119.377C262.193 117.353 259.753 115.19 257.518 112.83C264.009 108.511 269.736 103.103 273.857 96.2145C274.537 95.0785 274.105 93.9926 273.3 93.3803C270.009 97.6113 265.75 101.194 261.269 104.369C258.974 106.389 256.502 108.204 253.911 109.844C252.06 110.221 250.189 110.479 248.375 110.691C243.208 111.295 238.014 111.069 232.875 110.364C221.761 108.84 174.761 95.5361 154.95 100.708C150.823 101.785 148.877 105.589 146.692 109.162C144.796 112.269 142.385 114.841 139.493 116.959L139.169 117.193C133.514 121.216 122.143 133.946 117.363 145.307C111.192 159.976 105.264 203.933 107.993 204.311C115.131 205.305 119.084 209.165 124.899 213.307C125.283 213.578 125.058 214.312 124.564 214.126C120.726 212.703 116.575 211.863 112.55 211.174C108.91 210.548 105.077 210.435 101.563 211.772C96.171 213.826 93.5409 218.471 92.4592 223.708C92.0364 225.757 91.8497 227.896 91.8278 230.012L91.8247 230.626C91.8276 237.298 93.038 244.696 97.7523 249.618C99.7564 251.711 102.474 253.122 105.319 253.512C108.432 253.941 110.354 252.496 113.214 251.745C116.509 250.882 119.078 253.111 118.771 256.017C119.468 256.644 120.144 257.304 120.814 257.976L120.814 257.978L120.819 257.981C121.258 258.184 121.676 258.455 122.054 258.783C122.675 259.324 123.197 259.917 123.614 260.555C124.542 260.741 125.431 261.271 126.162 262.242C127.666 264.234 129.055 266.249 130.346 268.303C132.657 270.826 134.958 273.354 137.225 275.922C139.955 279.008 142.612 282.165 145.287 285.303L146.626 286.87C148.07 288.558 149.508 290.245 150.947 291.938L151.376 292.436C152.823 294.101 153.932 295.331 154.088 297.729C154.197 299.506 152.336 300.714 150.793 300.308C148.414 299.677 147.31 297.758 145.885 295.854L143.732 293.016L141.706 290.341C140.701 289.009 139.685 287.683 138.675 286.357C138.373 288.801 135.858 290.77 133.563 290.877L133.028 290.899C127.638 291.083 121.089 290.301 116.986 286.396C115.142 288.31 112.846 289.816 110.019 290.719C103.594 292.774 97.0275 289.133 94.4304 283.597C89.3954 285.815 83.7069 286.261 78.2656 284.63C75.1271 283.684 74.0417 279.664 76.2287 277.203L76.3273 277.096L76.3526 277.067C75.9012 276.463 75.6531 275.725 75.613 274.921C75.5641 273.945 76.2565 272.91 76.1137 271.998C75.5691 268.522 70.0541 271.097 68.3015 271.85C67.9665 271.994 67.6525 272.062 67.3593 272.073C64.6496 272.884 61.7027 269.224 63.122 266.204C66.3012 259.454 69.4035 252.654 72.6211 245.915C72.2147 246.057 71.7974 246.186 71.3856 246.294C65.6039 247.817 58.5921 244.894 59.9264 237.732C60.2339 236.051 61.7164 234.899 63.1879 234.38C66.0541 233.364 68.2065 234.098 70.4138 233.15C72.9011 232.089 75.4982 230.142 77.6836 228.308C80.0171 226.355 82.0322 224.16 83.8167 221.778C84.5305 218.319 85.766 215.012 87.7426 212.167C87.8634 211.998 87.9842 211.829 88.1105 211.665C75.4341 208.559 77.094 195.745 71.5024 184.389L71.03 183.448C67.2323 175.852 63.9192 167.288 65.8345 158.639C66.1749 157.109 66.6691 155.647 67.306 154.282C66.2902 154.412 65.2689 154.53 64.2531 154.649C61.9196 154.919 59.5475 151.827 60.4755 149.552C60.9642 148.362 61.5023 147.21 62.0843 146.093C63.6986 143.012 65.6807 140.212 68.0143 137.684C64.0939 137.577 60.168 137.577 56.2915 137.114C52.6292 136.68 48.7801 134.62 48.8905 130.28C49.0064 126.142 52.5386 123.01 55.8138 120.991C59.0374 116.584 63.1264 112.922 67.7513 110.2C66.8364 109.988 65.9094 109.832 64.9671 109.735L64.4947 109.692C61.8537 109.478 59.4817 108.733 57.0877 107.599C54.9463 106.583 54.9792 103.501 56.3794 101.949C60.906 96.9199 67.6882 98.5577 72.9653 101.44C72.5979 100.961 72.1954 100.499 71.7569 100.057L71.4894 99.7947C68.8967 97.3133 72.788 93.3312 75.3719 95.8042C76.1884 96.5858 76.9198 97.4352 77.5721 98.3353L77.6341 98.2021C81.0481 91.0847 86.0414 84.714 91.9491 79.6092L93.3375 78.4227C103.991 69.2764 107.278 64.9414 121.445 66.2881C120.841 63.643 120.9 60.6674 121.036 58.2208L121.055 57.8905C121.599 48.6916 124.899 37.6811 133.629 33.55C135.897 32.4834 138.466 34.2273 137.862 36.8967C137.44 38.7872 136.923 40.627 136.281 42.416C138.186 40.3561 140.229 38.4317 142.392 36.6596C151.21 29.4359 162.994 23.2224 174.585 25.2541C180.954 26.3771 185.951 30.4856 191.282 33.9169C196.641 37.3707 202.626 39.4193 208.902 40.1586C217.671 41.197 226.472 40.153 235.142 38.5051C241.1 35.8357 246.882 32.7092 252.526 29.34C255.996 27.2688 259.373 25.0058 262.563 22.5057ZM106.878 222.303C108.734 221.812 110.815 221.818 112.676 222.297C117.481 223.539 121.95 227.67 122.23 232.879C122.357 235.232 120.512 237.484 118.37 238.088C115.944 238.776 113.857 237.557 112.44 235.605C110.919 233.517 110.541 231.254 108.679 229.357L108.25 228.928C106.668 227.373 104.275 225.362 102.079 225.723C101.755 225.774 101.514 225.322 101.843 225.142C103.633 224.137 104.808 222.845 106.878 222.303ZM131.834 197.771C132.681 197.06 133.801 197.894 133.402 198.916L133.371 198.99C132.366 201.168 133.547 203.724 134.766 205.547C135.814 207.122 133.832 208.617 132.438 207.94C128.517 206.027 128.72 200.367 131.834 197.771ZM146.164 132.323C146.093 131.792 146.779 131.572 146.955 132.097C149.882 140.827 150.722 148.559 150.244 157.792L150.199 158.611C149.682 167.504 148.167 176.917 142.93 184.22C141.717 185.908 139.235 184.914 139.636 182.793C141.245 174.299 144.336 166.234 145.539 157.639C146.796 148.655 147.361 141.313 146.164 132.323ZM118.832 164.056C119.26 161.725 122.746 159.327 124.509 161.669C125.102 162.465 124.405 163.441 123.691 163.735C123.021 164.005 122.423 163.633 121.764 163.768C121.231 163.879 120.841 164.221 120.582 164.688L120.528 164.79C120.012 165.806 118.65 165.049 118.832 164.056ZM117.404 145.489C118.656 143.107 121.539 141.589 124.004 143.074C124.817 143.565 124.498 144.992 123.51 144.947L122.924 144.923C121.166 144.857 119.409 144.894 117.931 146.036C117.602 146.29 117.239 145.811 117.404 145.489ZM121.806 80.4488C114.784 77.2038 107.8 80.1333 102.066 84.7023C101.591 85.0804 101.361 85.5217 101.311 85.9653C105.139 84.4331 109.215 83.4286 113.111 82.5995C116.297 81.9212 119.513 81.4635 122.733 81.2829C122.552 80.9505 122.257 80.657 121.806 80.4488Z" fill="#12296C"/>
<path fill-rule="evenodd" clip-rule="evenodd" d="M220.526 275.431C216.835 273.884 213.542 271.302 211.134 268.004C210.297 266.858 210.08 265.647 210.256 264.54C210.453 263.295 211.17 262.166 212.147 261.41C213.128 260.65 214.354 260.276 215.539 260.467C216.57 260.633 217.595 261.212 218.407 262.415L218.576 262.655C220.008 264.646 221.873 266.279 223.999 267.331C226.047 268.346 228.338 268.82 230.709 268.544C235.225 268.02 238.337 265.51 241.645 262.101C242.055 261.671 242.465 261.227 242.878 260.776C243.138 260.368 243.499 260.105 243.901 259.967C244.346 259.814 244.85 259.823 245.311 259.988C245.757 260.148 246.154 260.45 246.421 260.853C246.675 261.236 246.819 261.709 246.772 262.252C246.469 265.785 244.672 268.937 242.12 271.413C239.286 274.162 235.528 276.064 231.991 276.731C228.093 277.466 224.122 276.939 220.526 275.431ZM233.829 220.938C237.975 223.528 244.293 229.569 239.833 235.991C234.582 241.653 227.023 235.161 223.298 232.224C219.844 229.949 215.963 235.801 219.168 238.459C246.085 258.942 257.009 221.615 235.926 217.892C233.605 217.482 232.743 220.137 233.829 220.938ZM185.592 197.111C186.05 191.266 194.711 189.939 195.572 195.722C196.344 200.903 195.436 205.662 193.165 210.327C190.996 214.783 185.543 212.704 185.131 208.646C184.578 203.207 185.307 200.746 185.592 197.111ZM251.516 194.523C252.724 192.898 254.467 191.788 256.556 192.415C263.082 194.375 261.158 203.898 258.866 208.533C257.621 211.05 253.596 211.688 251.777 209.472C248.812 205.858 247.392 198.64 251.161 195.08C251.263 194.896 251.377 194.71 251.516 194.523ZM193.073 171.536L194.104 171.351C197.293 170.784 201.258 170.24 203.514 172.875C204.71 174.272 205.122 176.869 203.514 178.207C200.685 180.56 197.558 179.648 194.168 179.847C191.374 180.012 188.689 180.487 185.998 181.278C180.094 183.012 175.284 186.178 170.242 189.654C169.58 190.11 168.904 189.241 169.22 188.605C172.131 182.745 177.772 177.932 183.422 174.998C186.437 173.432 189.737 172.132 193.073 171.536ZM245.568 168.912L246.357 169.078C254.943 170.922 266.098 174.607 270.164 183.275C270.319 184.501 270.155 184.764 270.022 184.935L269.978 184.992C269.868 185.139 269.78 185.341 269.264 185.508C269.12 185.473 268.975 185.435 268.829 185.396C266.965 184.894 265.491 184.202 264.063 183.485L262.515 182.701C260.719 181.796 258.908 180.924 256.988 180.28C252.891 178.907 248.676 177.939 244.396 177.422C243.469 177.31 242.576 176.989 241.871 176.437C241.202 175.914 240.691 175.189 240.458 174.226C240.156 172.979 240.243 172.035 240.894 170.91C241.383 170.066 242.083 169.48 242.887 169.144C243.707 168.801 244.64 168.721 245.568 168.912Z" fill="#12296C"/>
</g>
<defs>
<clipPath id="clip0_109_68">
<rect width="525" height="670" fill="white"/>
</clipPath>
</defs>
</svg>
