<?xml version="1.0" encoding="utf-8" ?>
<svg xmlns="http://www.w3.org/2000/svg" xmlns:xlink="http://www.w3.org/1999/xlink" width="512" height="512">
	<path d="M213.514 440.397L401.016 440.429L401.04 367.76C401.056 364.569 400.187 360.791 402.509 358.292L442.491 315.356C443.829 313.852 448.764 309.623 449.158 308.994L449.176 452.159C448.947 472.176 433.521 488.026 413.173 488.167L104.14 488.183C100.29 488.182 96.2352 488.432 92.4211 487.89C77.136 485.716 63.5555 470.349 63.5094 454.933L63.5124 107.983C63.5136 102.013 63.2234 96.674 64.8022 90.8929C68.688 76.665 79.2606 67.3669 93.7117 64.5721C98.9172 63.5653 104.629 64.0174 109.935 64.0151L135.783 64.0233C136.065 63.7679 135.986 63.9306 135.987 63.5207L136.019 38.8939C136.03 34.166 135.856 29.3468 136.219 24.6329L187.116 24.5014C187.489 24.3714 187.256 24.352 187.8 24.5263L187.646 64.0194L230.753 64.0403C231.191 60.547 230.87 56.6434 230.878 53.0934L231.063 24.5409L282.353 24.42L282.4 64.0094L325.581 64.0428L325.628 24.4983L376.638 24.4135L376.502 64.033L415.027 64.0747C432.604 64.5002 448.401 80.7487 449.141 98.1988L449.264 179.54C449.261 189.534 451.845 188.389 443.917 193.301C440.92 195.158 438.048 197.01 435.46 199.425L410.586 224.808C409.341 226.068 401.966 234.227 400.409 234.153L400.773 113.876C399.569 113.503 397.786 113.739 396.518 113.735L111.519 113.74L111.64 440.295L213.514 440.397Z"/>
	<path d="M342.875 187.459L152.619 187.557L152.671 143.063L168.09 143.044L358.598 143.002L358.607 187.474L342.875 187.459Z"/>
	<path d="M316.023 415.639L289.544 423.553C290.558 412.413 292.907 401.409 294.814 390.397L296.31 381.475C297.291 375.598 298.119 373.999 302.112 369.496L341.712 324.6L439.781 219.502C441.902 217.417 443.982 215.76 446.687 214.502L447.503 214.508C453.006 214.731 472.395 233.797 477.297 239.15C484.448 246.961 475.862 253.454 470.713 258.987L409.868 324.632L365.697 373.526C357.048 383.035 348.63 392.958 339.03 401.533L339.401 405.058C336.389 408.708 332.085 410.213 327.754 411.755L316.023 415.639Z"/>
	<path d="M357.232 278.165C351.063 279.251 344.252 278.712 338 278.709L152.603 278.949L152.649 234.541L358.064 234.638L358.019 259.645C358.005 265.688 358.565 272.254 357.232 278.165Z"/>
	<path d="M285.905 369.51L152.415 369.709L152.629 324.373L286.235 324.294L285.905 369.51Z"/>
</svg>
