<svg width="512" height="521" viewBox="0 0 512 521" fill="none" xmlns="http://www.w3.org/2000/svg">
<rect x="5" width="502" height="521" fill="#FFC700"/>
<path d="M213.514 445.397L401.016 445.429L401.04 372.76C401.056 369.569 400.187 365.791 402.509 363.292L442.491 320.356C443.829 318.852 448.764 314.623 449.158 313.994L449.176 457.159C448.947 477.176 433.521 493.026 413.173 493.167L104.14 493.183C100.29 493.182 96.2352 493.432 92.4211 492.89C77.136 490.716 63.5555 475.349 63.5094 459.933L63.5124 112.983C63.5136 107.013 63.2234 101.674 64.8022 95.8929C68.688 81.665 79.2606 72.3669 93.7117 69.5721C98.9172 68.5653 104.629 69.0174 109.935 69.0151L135.783 69.0233C136.065 68.7679 135.986 68.9306 135.987 68.5207L136.019 43.8939C136.03 39.166 135.856 34.3468 136.219 29.6329L187.116 29.5014C187.489 29.3714 187.256 29.352 187.8 29.5263L187.646 69.0194L230.753 69.0403C231.191 65.547 230.87 61.6434 230.878 58.0934L231.063 29.5409L282.353 29.42L282.4 69.0094L325.581 69.0428L325.628 29.4983L376.638 29.4135L376.502 69.033L415.027 69.0747C432.604 69.5002 448.401 85.7487 449.141 103.199L449.264 184.54C449.261 194.534 451.845 193.389 443.917 198.301C440.92 200.158 438.048 202.01 435.46 204.425L410.586 229.808C409.341 231.068 401.966 239.227 400.409 239.153L400.773 118.876C399.569 118.503 397.786 118.739 396.518 118.735L111.519 118.74L111.64 445.295L213.514 445.397Z" fill="#12296C"/>
<path d="M342.875 192.459L152.619 192.557L152.671 148.063L168.09 148.044L358.598 148.002L358.607 192.474L342.875 192.459Z" fill="#12296C"/>
<path d="M316.023 420.639L289.544 428.553C290.558 417.413 292.907 406.409 294.814 395.397L296.31 386.475C297.291 380.598 298.119 378.999 302.112 374.496L341.712 329.6L439.781 224.502C441.902 222.417 443.982 220.76 446.687 219.502L447.503 219.508C453.006 219.731 472.395 238.797 477.297 244.15C484.448 251.961 475.862 258.454 470.713 263.987L409.868 329.632L365.697 378.526C357.048 388.035 348.63 397.958 339.03 406.533L339.401 410.058C336.389 413.708 332.085 415.213 327.754 416.755L316.023 420.639Z" fill="#12296C"/>
<path d="M357.232 283.165C351.063 284.251 344.252 283.712 338 283.709L152.603 283.949L152.649 239.541L358.064 239.638L358.019 264.645C358.005 270.688 358.565 277.254 357.232 283.165Z" fill="#12296C"/>
<path d="M285.905 374.51L152.415 374.709L152.629 329.373L286.235 329.294L285.905 374.51Z" fill="#12296C"/>
</svg>
