<svg width="164" height="156" viewBox="0 0 164 156" fill="none" xmlns="http://www.w3.org/2000/svg">
<path d="M106.685 97.8963L108.5 110L110.315 97.8963C115.233 65.1286 118.721 61.6709 151.786 56.7991L164 55L151.788 53.2009C118.722 48.3291 115.233 44.8714 110.317 12.1037L108.5 0L106.685 12.1037C101.767 44.8714 98.2794 48.3291 65.2137 53.2009L53 55L65.2125 56.7991C98.2794 61.6721 101.767 65.1286 106.685 97.8963ZM99.1094 45.694C103.914 40.9334 106.41 34.2638 108.5 23.4728C110.591 34.2638 113.086 40.9322 117.891 45.694C122.694 50.4546 129.425 52.9283 140.314 55C129.425 57.0717 122.696 59.5454 117.891 64.306C113.086 69.0666 110.591 75.7362 108.5 86.5272C106.41 75.7362 103.914 69.0678 99.1094 64.306C94.3056 59.5454 87.5753 57.0717 76.6862 55C87.5753 52.9283 94.3056 50.4546 99.1094 45.694Z" fill="#12296C"/>
<path d="M45.6619 155.23C45.2928 155.229 44.9359 155.101 44.6558 154.868C44.3757 154.635 44.1906 154.313 44.134 153.96L39.4677 125.33L25.9642 132.33C25.6752 132.464 25.3506 132.507 25.035 132.455C24.7193 132.402 24.4283 132.256 24.2018 132.037C23.9754 131.818 23.8247 131.536 23.7706 131.23C23.7164 130.924 23.7615 130.61 23.8995 130.33L31.1054 117.23L1.54856 112.71C1.13786 112.71 0.743974 112.552 0.453563 112.271C0.163151 111.989 0 111.608 0 111.21C0 110.812 0.163151 110.431 0.453563 110.149C0.743974 109.868 1.13786 109.71 1.54856 109.71L31.1054 105.23L23.8788 92.15C23.7408 91.8701 23.6958 91.5556 23.7499 91.2499C23.8041 90.9442 23.9548 90.6622 24.1812 90.4429C24.4076 90.2236 24.6987 90.0776 25.0143 90.0252C25.3299 89.9727 25.6546 90.0163 25.9436 90.15L39.4677 97.13L44.134 68.5C44.134 68.1022 44.2971 67.7206 44.5876 67.4393C44.878 67.158 45.2719 67 45.6826 67C46.0933 67 46.4871 67.158 46.7776 67.4393C47.068 67.7206 47.2311 68.1022 47.2311 68.5L51.8562 97.13L65.3596 90.13C65.6486 89.9963 65.9732 89.9527 66.2889 90.0052C66.6045 90.0576 66.8955 90.2036 67.122 90.4229C67.3484 90.6422 67.4991 90.9242 67.5532 91.2299C67.6074 91.5356 67.5624 91.8501 67.4244 92.13L60.2184 105.23L89.7753 109.78C90.186 109.78 90.5798 109.938 90.8703 110.219C91.1607 110.501 91.3238 110.882 91.3238 111.28C91.3238 111.678 91.1607 112.059 90.8703 112.341C90.5798 112.622 90.186 112.78 89.7753 112.78L60.2184 117.23L67.445 130.31C67.583 130.59 67.628 130.904 67.5739 131.21C67.5197 131.516 67.3691 131.798 67.1426 132.017C66.9162 132.236 66.6251 132.382 66.3095 132.435C65.9939 132.487 65.6692 132.444 65.3803 132.31L51.8562 125.33L47.1898 153.96C47.1332 154.313 46.9482 154.635 46.668 154.868C46.3879 155.101 46.0311 155.229 45.6619 155.23ZM40.6239 121.51C40.8631 121.51 41.0994 121.561 41.3156 121.66C41.5376 121.767 41.7302 121.923 41.8775 122.116C42.0247 122.309 42.1223 122.533 42.1622 122.77L45.6619 144.16L49.1617 122.77C49.2008 122.533 49.2981 122.308 49.4454 122.115C49.5928 121.922 49.7859 121.766 50.0084 121.66C50.231 121.554 50.4765 121.502 50.7244 121.507C50.9723 121.512 51.2153 121.575 51.4329 121.69L62.3141 127.36L56.4605 116.82C56.3417 116.609 56.2769 116.374 56.2715 116.134C56.2662 115.894 56.3204 115.656 56.4296 115.44C56.5389 115.225 56.7 115.038 56.8994 114.895C57.0988 114.752 57.3307 114.658 57.5755 114.62L79.658 111.23L57.5755 107.84C57.3307 107.802 57.0988 107.708 56.8994 107.565C56.7 107.422 56.5389 107.235 56.4296 107.02C56.3204 106.804 56.2662 106.566 56.2715 106.326C56.2769 106.086 56.3417 105.851 56.4605 105.64L62.3141 95.1L51.4329 100.77C51.2153 100.885 50.9723 100.948 50.7244 100.953C50.4765 100.958 50.231 100.906 50.0084 100.8C49.7859 100.694 49.5928 100.538 49.4454 100.345C49.2981 100.152 49.2008 99.9272 49.1617 99.69L45.6619 78.3L42.1622 99.69C42.1231 99.9272 42.0257 100.152 41.8784 100.345C41.731 100.538 41.538 100.694 41.3154 100.8C41.0928 100.906 40.8473 100.958 40.5994 100.953C40.3515 100.948 40.1086 100.885 39.8909 100.77L29.0097 95.1L34.8633 105.64C34.9821 105.851 35.0469 106.086 35.0523 106.326C35.0577 106.566 35.0034 106.804 34.8942 107.02C34.7849 107.235 34.6238 107.422 34.4244 107.565C34.225 107.708 33.9931 107.802 33.7483 107.84L11.6658 111.23L33.7483 114.62C33.9931 114.658 34.225 114.752 34.4244 114.895C34.6238 115.038 34.7849 115.225 34.8942 115.44C35.0034 115.656 35.0577 115.894 35.0523 116.134C35.0469 116.374 34.9821 116.609 34.8633 116.82L29.0097 127.36L39.8909 121.69C40.1166 121.573 40.3682 121.512 40.6239 121.51Z" fill="#12296C"/>
</svg>
