<svg width="163" height="156" viewBox="0 0 163 156" fill="none" xmlns="http://www.w3.org/2000/svg">
<path d="M53.2009 98.7863L55 111L56.7991 98.7863C61.6721 65.7206 65.1286 62.2315 97.8963 57.3155L110 55.5L97.8976 53.6845C65.1298 48.7685 61.6721 45.2794 56.8003 12.2137L55 0L53.2009 12.2137C48.3279 45.2794 44.8714 48.7685 12.1037 53.6845L0 55.5L12.1024 57.3155C44.8714 62.2328 48.3279 65.7206 53.2009 98.7863ZM45.694 46.1094C50.4558 41.3056 52.9283 34.5753 55 23.6862C57.0717 34.5753 59.5442 41.3043 64.306 46.1094C69.0666 50.9132 75.7362 53.4095 86.5272 55.5C75.7362 57.5905 69.0678 60.0868 64.306 64.8906C59.5442 69.6944 57.0717 76.4247 55 87.3138C52.9283 76.4247 50.4558 69.6957 45.694 64.8906C40.9334 60.0868 34.2638 57.5905 23.4728 55.5C34.2638 53.4095 40.9334 50.9132 45.694 46.1094Z" fill="#12296C"/>
<path d="M116.662 155.23C116.293 155.229 115.936 155.101 115.656 154.868C115.376 154.635 115.191 154.313 115.134 153.96L110.468 125.33L96.9642 132.33C96.6752 132.464 96.3506 132.507 96.035 132.455C95.7193 132.402 95.4283 132.256 95.2018 132.037C94.9754 131.818 94.8247 131.536 94.7706 131.23C94.7164 130.924 94.7615 130.61 94.8995 130.33L102.105 117.23L72.5486 112.71C72.1379 112.71 71.744 112.552 71.4536 112.271C71.1632 111.989 71 111.608 71 111.21C71 110.812 71.1632 110.431 71.4536 110.149C71.744 109.868 72.1379 109.71 72.5486 109.71L102.105 105.23L94.8788 92.15C94.7408 91.8701 94.6958 91.5556 94.7499 91.2499C94.8041 90.9442 94.9548 90.6622 95.1812 90.4429C95.4076 90.2236 95.6987 90.0776 96.0143 90.0252C96.3299 89.9727 96.6546 90.0163 96.9436 90.15L110.468 97.13L115.134 68.5C115.134 68.1022 115.297 67.7206 115.588 67.4393C115.878 67.158 116.272 67 116.683 67C117.093 67 117.487 67.158 117.778 67.4393C118.068 67.7206 118.231 68.1022 118.231 68.5L122.856 97.13L136.36 90.13C136.649 89.9963 136.973 89.9527 137.289 90.0052C137.604 90.0576 137.896 90.2036 138.122 90.4229C138.348 90.6422 138.499 90.9242 138.553 91.2299C138.607 91.5356 138.562 91.8501 138.424 92.13L131.218 105.23L160.775 109.78C161.186 109.78 161.58 109.938 161.87 110.219C162.161 110.501 162.324 110.882 162.324 111.28C162.324 111.678 162.161 112.059 161.87 112.341C161.58 112.622 161.186 112.78 160.775 112.78L131.218 117.23L138.445 130.31C138.583 130.59 138.628 130.904 138.574 131.21C138.52 131.516 138.369 131.798 138.143 132.017C137.916 132.236 137.625 132.382 137.309 132.435C136.994 132.487 136.669 132.444 136.38 132.31L122.856 125.33L118.19 153.96C118.133 154.313 117.948 154.635 117.668 154.868C117.388 155.101 117.031 155.229 116.662 155.23ZM111.624 121.51C111.863 121.51 112.099 121.561 112.316 121.66C112.538 121.767 112.73 121.923 112.877 122.116C113.025 122.309 113.122 122.533 113.162 122.77L116.662 144.16L120.162 122.77C120.201 122.533 120.298 122.308 120.445 122.115C120.593 121.922 120.786 121.766 121.008 121.66C121.231 121.554 121.477 121.502 121.724 121.507C121.972 121.512 122.215 121.575 122.433 121.69L133.314 127.36L127.461 116.82C127.342 116.609 127.277 116.374 127.272 116.134C127.266 115.894 127.32 115.656 127.43 115.44C127.539 115.225 127.7 115.038 127.899 114.895C128.099 114.752 128.331 114.658 128.576 114.62L150.658 111.23L128.576 107.84C128.331 107.802 128.099 107.708 127.899 107.565C127.7 107.422 127.539 107.235 127.43 107.02C127.32 106.804 127.266 106.566 127.272 106.326C127.277 106.086 127.342 105.851 127.461 105.64L133.314 95.1L122.433 100.77C122.215 100.885 121.972 100.948 121.724 100.953C121.477 100.958 121.231 100.906 121.008 100.8C120.786 100.694 120.593 100.538 120.445 100.345C120.298 100.152 120.201 99.9272 120.162 99.69L116.662 78.3L113.162 99.69C113.123 99.9272 113.026 100.152 112.878 100.345C112.731 100.538 112.538 100.694 112.315 100.8C112.093 100.906 111.847 100.958 111.599 100.953C111.352 100.948 111.109 100.885 110.891 100.77L100.01 95.1L105.863 105.64C105.982 105.851 106.047 106.086 106.052 106.326C106.058 106.566 106.003 106.804 105.894 107.02C105.785 107.235 105.624 107.422 105.424 107.565C105.225 107.708 104.993 107.802 104.748 107.84L82.6658 111.23L104.748 114.62C104.993 114.658 105.225 114.752 105.424 114.895C105.624 115.038 105.785 115.225 105.894 115.44C106.003 115.656 106.058 115.894 106.052 116.134C106.047 116.374 105.982 116.609 105.863 116.82L100.01 127.36L110.891 121.69C111.117 121.573 111.368 121.512 111.624 121.51Z" fill="#12296C"/>
</svg>
